<?xml version="1.0" encoding="UTF-8" standalone="no"?>
<!DOCTYPE svg PUBLIC "-//W3C//DTD SVG 20010904//EN"
              "http://www.w3.org/TR/2001/REC-SVG-20010904/DTD/svg10.dtd">

<svg xmlns="http://www.w3.org/2000/svg"
     width="304.801mm" height="268.225mm"
     viewBox="0 0 1200 1056">
  <path id="Selection"
        fill="none" stroke="black" stroke-width="1"
        d="M 570.00,989.00
           C 563.48,939.60 546.38,890.80 522.69,847.00
             504.57,813.49 482.61,782.32 461.02,751.00
             461.02,751.00 369.98,617.00 369.98,617.00
             369.98,617.00 299.67,514.00 299.67,514.00
             299.67,514.00 284.00,491.00 284.00,491.00
             279.18,483.80 275.56,480.14 276.04,471.00
             276.43,463.61 284.18,454.22 288.33,448.00
             288.33,448.00 321.00,400.00 321.00,400.00
             321.00,400.00 390.98,297.00 390.98,297.00
             390.98,297.00 445.98,216.00 445.98,216.00
             445.98,216.00 495.34,143.00 495.34,143.00
             495.34,143.00 547.67,66.00 547.67,66.00
             547.67,66.00 566.67,38.00 566.67,38.00
             572.52,29.22 579.11,20.30 591.00,21.33
             603.88,22.44 608.24,31.36 614.67,41.00
             614.67,41.00 648.33,92.00 648.33,92.00
             648.33,92.00 793.67,310.00 793.67,310.00
             793.67,310.00 816.67,345.00 816.67,345.00
             821.29,351.94 826.52,358.16 825.90,367.00
             825.14,377.99 815.87,385.66 805.00,384.90
             793.47,384.10 788.46,374.53 782.66,366.00
             782.66,366.00 746.67,314.00 746.67,314.00
             746.67,314.00 712.02,264.00 712.02,264.00
             712.02,264.00 634.66,152.00 634.66,152.00
             634.66,152.00 604.28,108.00 604.28,108.00
             600.07,101.98 590.33,89.08 588.00,83.00
             588.00,83.00 586.00,83.00 586.00,83.00
             586.00,83.00 551.02,135.00 551.02,135.00
             551.02,135.00 485.34,231.00 485.34,231.00
             485.34,231.00 381.34,383.00 381.34,383.00
             381.34,383.00 340.34,443.00 340.34,443.00
             340.34,443.00 317.00,477.00 317.00,477.00
             317.00,477.00 329.14,493.00 329.14,493.00
             329.14,493.00 350.67,524.00 350.67,524.00
             350.67,524.00 409.72,609.00 409.72,609.00
             409.72,609.00 502.02,742.00 502.02,742.00
             502.02,742.00 531.14,784.00 531.14,784.00
             531.14,784.00 564.31,841.00 564.31,841.00
             564.31,841.00 579.14,870.00 579.14,870.00
             579.14,870.00 587.00,891.00 587.00,891.00
             587.00,891.00 605.74,855.00 605.74,855.00
             628.94,810.05 655.94,767.48 683.31,725.00
             683.31,725.00 761.05,603.00 761.05,603.00
             761.05,603.00 797.58,546.00 797.58,546.00
             797.58,546.00 849.31,465.00 849.31,465.00
             854.97,456.20 861.32,440.39 874.00,442.34
             880.72,443.38 885.48,448.80 889.26,454.00
             896.04,463.35 903.75,476.75 909.31,487.00
             934.61,533.67 950.72,585.80 953.04,639.00
             953.04,639.00 954.00,650.00 954.00,650.00
             954.72,711.52 942.08,773.04 913.74,828.00
             862.23,927.90 773.95,996.85 664.00,1020.21
             646.73,1023.88 629.58,1025.88 612.00,1027.09
             612.00,1027.09 600.00,1028.00 600.00,1028.00
             600.00,1028.00 574.00,1028.00 574.00,1028.00
             574.00,1028.00 562.00,1027.09 562.00,1027.09
             526.70,1024.67 492.33,1018.17 459.00,1005.95
             352.00,966.72 268.55,877.00 235.72,768.00
             227.96,742.25 222.79,715.82 220.91,689.00
             220.91,689.00 220.00,677.00 220.00,677.00
             220.00,677.00 220.00,642.00 220.00,642.00
             220.00,642.00 220.91,632.00 220.91,632.00
             221.90,617.83 223.81,603.95 226.60,590.00
             226.60,590.00 233.46,562.00 233.46,562.00
             242.10,540.20 273.31,547.05 271.91,570.00
             271.91,570.00 267.00,592.00 267.00,592.00
             264.04,606.30 260.02,629.71 260.00,644.00
             260.00,644.00 260.00,677.00 260.00,677.00
             260.00,677.00 261.85,698.00 261.85,698.00
             265.63,729.63 273.89,760.70 286.43,790.00
             326.11,882.75 407.84,954.83 506.00,979.37
             523.86,983.84 551.82,988.99 570.00,989.00 Z
           M 875.00,501.00
           C 875.00,501.00 873.00,501.00 873.00,501.00
             873.00,501.00 853.69,531.00 853.69,531.00
             853.69,531.00 815.69,590.00 815.69,590.00
             815.69,590.00 695.31,777.00 695.31,777.00
             695.31,777.00 665.45,823.00 665.45,823.00
             637.10,870.25 609.00,933.09 609.00,989.00
             609.00,989.00 620.00,988.09 620.00,988.09
             650.18,985.88 681.90,978.20 710.00,967.00
             812.27,926.22 885.73,838.30 909.42,731.00
             912.88,715.35 914.99,699.96 916.09,684.00
             916.09,684.00 917.00,674.00 917.00,674.00
             917.00,674.00 917.00,649.00 917.00,649.00
             917.00,649.00 916.09,637.00 916.09,637.00
             914.41,612.96 910.14,589.06 902.98,566.00
             895.44,541.76 886.79,523.32 875.00,501.00 Z
           M 581.00,601.42
           C 589.01,600.45 597.16,601.67 605.00,603.42
             613.24,605.27 622.07,609.23 629.00,614.04
             674.40,645.58 671.29,713.92 623.00,741.13
             609.90,748.51 597.71,750.17 583.00,750.00
             575.85,749.91 568.75,748.28 562.00,746.00
             522.00,732.45 501.73,686.93 517.45,648.00
             525.56,627.93 542.25,611.63 563.00,605.03
             570.56,602.62 573.51,602.51 581.00,601.42 Z" />
</svg>
